<svg xmlns="http://www.w3.org/2000/svg" viewBox="0 0 1200 900">
  <rect width="1200" height="900" fill="#cfe4ef"/>
  <rect y="585" width="1200" height="315" fill="#6fa7b7"/>
  <path d="M0 530c185-95 310-130 470-50 145 72 255 45 380 0 90-32 155-20 350 70v365H0z" fill="#2f6f5e"/>
  <rect x="315" y="430" width="70" height="240" fill="#b54035"/>
  <rect x="815" y="430" width="70" height="240" fill="#b54035"/>
  <rect x="270" y="380" width="660" height="62" fill="#b54035"/>
  <rect x="230" y="330" width="740" height="50" fill="#96342d"/>
  <rect x="535" y="440" width="130" height="230" fill="#b54035"/>
  <path d="M220 690c190-65 375-72 560-12 120 39 250 39 390-10" fill="none" stroke="#fbfaf7" stroke-width="18" opacity=".9"/>
  <text x="600" y="235" text-anchor="middle" font-family="Arial, sans-serif" font-size="72" font-weight="700" fill="#1d2328">Miyajima</text>
</svg>
